<?xml version="1.0" encoding="utf-8"?>
<!-- Generated by IcoMoon.io -->
<!DOCTYPE svg PUBLIC "-//W3C//DTD SVG 1.1//EN" "http://www.w3.org/Graphics/SVG/1.1/DTD/svg11.dtd">
<svg version="1.1" xmlns="http://www.w3.org/2000/svg" xmlns:xlink="http://www.w3.org/1999/xlink" width="50" height="50" viewBox="0 0 50 50">
<path d="M31 13h-4v-2c0-1.1-0.9-2-2-2h-4c-1.1 0-2 0.9-2 2v2h-4v4h16v-4zM25 13h-4v-1.996c0.001-0.001 0.002-0.002 0.004-0.004h3.993c0.001 0.001 0.003 0.002 0.004 0.004v1.996zM35 19v-5c0-0.55-0.45-1-1-1h-2v2h1v4h-6l-6 6v8h-8v-18h1v-2h-2c-0.55 0-1 0.45-1 1v20c0 0.55 0.45 1 1 1h9v6h20v-22h-6zM27 21.828v3.172h-3.172l3.172-3.172zM39 39h-16v-12h6v-6h10v18z" fill="#27ae60"/>
<rect x="0" y="0" rx="10" ry="10" width="50" height="50"
style="fill:#2ecc71;stroke:none;stroke-width:0;opacity:0.2" />
</svg>
