<?xml version="1.0" encoding="utf-8"?>
<!-- Generated by IcoMoon.io -->
<!DOCTYPE svg PUBLIC "-//W3C//DTD SVG 1.1//EN" "http://www.w3.org/Graphics/SVG/1.1/DTD/svg11.dtd">
<svg version="1.1" xmlns="http://www.w3.org/2000/svg" xmlns:xlink="http://www.w3.org/1999/xlink" width="50" height="50" viewBox="0 0 50 50">
<rect x="0" y="0" rx="10" ry="10" width="50" height="50"
style="fill:#f39c12;stroke:none;stroke-width:0;opacity:1" />
<path d="M13 19v20c0 1.1 0.9 2 2 2h18c1.1 0 2-0.9 2-2v-20h-22zM19 37h-2v-14h2v14zM23 37h-2v-14h2v14zM27 37h-2v-14h2v14zM31 37h-2v-14h2v14z" fill="#ffffff"/>
<path d="M35.5 13h-6.5v-2.5c0-0.825-0.675-1.5-1.5-1.5h-7c-0.825 0-1.5 0.675-1.5 1.5v2.5h-6.5c-0.825 0-1.5 0.675-1.5 1.5v2.5h26v-2.5c0-0.825-0.675-1.5-1.5-1.5zM27 13h-6v-1.975h6v1.975z" fill="#ffffff"/>
</svg>
