<?xml version="1.0" encoding="iso-8859-1"?>
<!-- Generator: Adobe Illustrator 19.0.0, SVG Export Plug-In . SVG Version: 6.00 Build 0)  -->
<svg version="1.1" id="Layer_1" xmlns="http://www.w3.org/2000/svg" xmlns:xlink="http://www.w3.org/1999/xlink" viewBox="15 -5 480 480" xml:space="preserve">
<path d="M416.579,156.286c-18.778,0-34,15.222-34,34h-10V154c0-18.778-15.222-34-34-34c-18.778,0-34,15.222-34,34v36.286h-10
	v-69.429c0-18.778-15.222-34-34-34c-18.778,0-34,15.222-34,34v69.429h-10V34c0-18.778-15.222-34-34-34c-18.778,0-34,15.222-34,34
	v277.861h-10L85.017,196.998c-7.936-17.02-28.166-24.381-45.184-16.445c-17.018,7.936-24.381,28.165-16.445,45.184l114.262,245.037
	h277.212l4.142-8.31c1.289-2.587,31.574-64.054,31.574-124.431V190.286C450.579,171.508,435.356,156.286,416.579,156.286z" stroke="black" stroke-width="10" fill="#2980b9" />
<g>
</g>
<g>
</g>
<g>
</g>
<g>
</g>
<g>
</g>
<g>
</g>
<g>
</g>
<g>
</g>
<g>
</g>
<g>
</g>
<g>
</g>
<g>
</g>
<g>
</g>
<g>
</g>
<g>
</g>
</svg>
