<?xml version="1.0" encoding="iso-8859-1"?>
<!-- Generator: Adobe Illustrator 19.0.0, SVG Export Plug-In . SVG Version: 6.00 Build 0)  -->
<svg version="1.1" id="Layer_1" xmlns="http://www.w3.org/2000/svg" xmlns:xlink="http://www.w3.org/1999/xlink" viewBox="-5 -5 455 455" xml:space="preserve">
<path d="M445,222.319L375,152.5v55H264.929c-4.519-12.783-14.646-22.91-27.429-27.429V70h55L222.319,0L152.5,70h55v110.071
	c-12.783,4.519-22.91,14.646-27.429,27.429H69.965l0.035-55L0,222.319L69.912,292.5l0.035-55h110.124
	c4.519,12.783,14.646,22.91,27.429,27.429v110.105l-55-0.035l69.819,70l70.181-69.912l-55-0.035V264.929
	c12.783-4.519,22.91-14.646,27.429-27.429H375v55L445,222.319z" stroke="black" stroke-width="10" fill="#27ae60" />
<g>
</g>
<g>
</g>
<g>
</g>
<g>
</g>
<g>
</g>
<g>
</g>
<g>
</g>
<g>
</g>
<g>
</g>
<g>
</g>
<g>
</g>
<g>
</g>
<g>
</g>
<g>
</g>
<g>
</g>
</svg>
