<?xml version="1.0" encoding="utf-8"?>
<!-- Generated by IcoMoon.io -->
<!DOCTYPE svg PUBLIC "-//W3C//DTD SVG 1.1//EN" "http://www.w3.org/Graphics/SVG/1.1/DTD/svg11.dtd">
<svg version="1.1" xmlns="http://www.w3.org/2000/svg" xmlns:xlink="http://www.w3.org/1999/xlink" width="50" height="50" viewBox="0 0 50 50">
<path d="M9 11v28h32v-28h-32zM21 29v-6h8v6h-8zM29 31v6h-8v-6h8zM29 15v6h-8v-6h8zM19 15v6h-8v-6h8zM11 23h8v6h-8v-6zM31 23h8v6h-8v-6zM31 21v-6h8v6h-8zM11 31h8v6h-8v-6zM31 37v-6h8v6h-8z" fill="#16a085"/>
<rect x="0" y="0" rx="10" ry="10" width="50" height="50"
style="fill:#ffffff;stroke:none;stroke-width:0;opacity:0.7" />
</svg>
