<?xml version="1.0" encoding="iso-8859-1"?>
<!-- Generator: Adobe Illustrator 19.0.0, SVG Export Plug-In . SVG Version: 6.00 Build 0)  -->
<svg version="1.1" id="Layer_1" xmlns="http://www.w3.org/2000/svg" xmlns:xlink="http://www.w3.org/1999/xlink" viewBox="-5 -5 395 395" xml:space="preserve">
<path d="M347.958,69.429c-18.778,0-34,15.222-34,34h-10V67.143c0-18.778-15.222-34-34-34s-34,15.222-34,34v36.286h-10V34
	c0-18.778-15.222-34-34-34s-34,15.222-34,34v69.429h-10V67.143c0-18.778-15.222-34-34-34s-34,15.222-34,34v158.14h-10v-85.568
	c0-18.778-15.222-34-34-34s-34,15.222-34,34v111.461c0,60.377,30.286,121.844,31.575,124.431l4.141,8.31h308.568l4.142-8.31
	c1.289-2.587,31.574-64.054,31.574-124.431V103.429C381.958,84.651,366.736,69.429,347.958,69.429z" stroke="black" stroke-width="10" fill="#16a085" />
<g>
</g>
<g>
</g>
<g>
</g>
<g>
</g>
<g>
</g>
<g>
</g>
<g>
</g>
<g>
</g>
<g>
</g>
<g>
</g>
<g>
</g>
<g>
</g>
<g>
</g>
<g>
</g>
<g>
</g>
</svg>
